<?xml version="1.0" standalone="yes"?>
<svg xmlns="http://www.w3.org/2000/svg" width="291" height="246">
<path style="fill:#000000; stroke:none;" d="M0 0L0 246L291 246L291 0L0 0z"/>
<path style="fill:#ff0000; stroke:none;" d="M233 70C228.44 72.1263 221.123 77.4979 220.643 83C220.243 87.5742 223.017 93.5612 224.127 98C226.89 109.052 229.992 119.985 232.884 131C234.081 135.558 236.575 141.231 236.218 146C235.926 149.905 232.151 153.093 229.576 155.715C223.186 162.218 216.732 168.855 210 175C209.715 161.642 202.106 148.403 197.692 136C196.191 131.783 195.182 124.827 191.362 122.013C186.947 118.761 178.274 118.553 173 117.539C160.649 115.165 148.302 112.126 136 109.424C130.992 108.324 122.49 108.241 118.699 104.436C116.366 102.094 115.399 98.0393 114.344 95C112.062 88.4283 109.568 81.7788 108 75C114.488 77.8758 121.348 80.0851 128 82.5756C130.802 83.6247 134.317 84.3076 136.486 86.51C141.748 91.8516 138.95 101.979 143.589 107.772C147.185 112.262 159.94 114.324 165 111.82C168.728 109.976 171.048 106.06 175 104.603C180.44 102.598 185.162 104.347 189.867 99.7863C193.585 96.1824 192.927 92.39 194.6 88C195.979 84.3793 199.334 81.6716 202 79C208.322 72.6648 214.758 66.4287 220.985 60C223.922 56.9672 227.237 53.5845 226.808 49.0008C226.23 42.83 219.939 41.4196 215 40C201.416 36.0957 187.668 32.4945 174 28.8843C161.338 25.5396 148.6 22.4309 136 18.8596C130.449 17.2862 122.821 13.7762 117 14.9776C110.563 16.3063 105.402 23.5981 101 28L66 63C58.6678 70.3322 51.2857 77.618 44.0039 85C40.4794 88.5729 36.1315 92.5296 36.5694 98C37.158 105.352 40.6707 112.888 42.5224 120C47.3018 138.358 52.2902 156.647 57.1157 175C59.2038 182.942 60.0218 197.64 66.3943 203.348C72.1722 208.523 84.6236 209.758 92 211.626C110.756 216.375 129.325 221.797 148 226.849C155.054 228.757 166.786 234.173 174 232.527C181.874 230.731 189.501 219.499 195 214L237 172C242.293 166.707 251.617 160.278 254.067 153C256.359 146.192 250.726 135.585 248.86 129C243.308 109.414 238.562 89.6017 233 70z"/>
<path style="fill:#000000; stroke:none;" d="M232 73C228.622 75.3795 223.87 78.6983 222.904 83C221.924 87.3608 225.009 93.7832 226.151 98C229.401 109.998 232.842 121.95 235.873 134C236.893 138.054 239.722 143.815 238.932 148C237.69 154.578 227.549 161.451 223 166L189 200C183.85 205.15 178.393 212.739 172 216.306C167.751 218.677 161.347 215.727 157 214.626C143.926 211.315 131.04 207.313 118 203.884C108.339 201.344 98.6107 199.018 89 196.29C85.4578 195.285 80.3224 194.813 77.51 192.272C74.4101 189.472 73.8361 183.845 72.8735 180C70.6099 170.957 67.977 162.019 65.6289 153L56.2654 117C54.9807 112.127 51.2884 105.058 52.1181 100C53.1863 93.4875 63.5283 86.4717 68 82L105 45C109.373 40.6272 114.969 32.4412 121 30.4915C127.296 28.4559 138.789 34.1686 145 35.8488C165.167 41.3042 186.311 49.214 207 52C201.425 59.9139 192.219 70.195 184 75.3966C179.511 78.2379 174.279 76.7512 170.394 81.1335C166.207 85.8568 168.864 91.1161 166.227 95.9992C163.925 100.261 158.932 103.752 154.109 101.481C146.931 98.102 149.761 86.0275 146.012 80.2137C143.554 76.4024 138.017 75.3416 134 74C125.582 71.1885 117.298 67.9534 109 64.8079C105.81 63.5988 99.6755 60.2134 96.3218 62.1212C93.4561 63.7512 94.6044 67.5226 95.3488 70C97.4757 77.0784 99.9887 84.0803 102.576 91C104.944 97.3353 105.884 107.676 110.51 112.696C113.985 116.467 121.284 116.426 126 117.499C139.303 120.525 153.426 124.816 167 126C161.532 127.503 156.428 125.486 151 124.46C141.652 122.693 132.291 120.987 123 118.88C118.76 117.919 112.77 117.662 109.499 114.487C103.49 108.654 101.597 94.7899 99 87C97.2228 81.6684 95.3804 76.3536 93.6705 71C92.7877 68.2358 91.5923 64.976 93.1937 62.2292C97.0025 55.6957 110.94 63.2696 116 65.1921C122.646 67.7174 129.291 70.3034 136 72.6566C139.771 73.9792 144.637 75.1303 147.262 78.3904C151.273 83.374 151.801 93.8193 153 100C154.589 100.182 156.421 100.615 158.025 100.397C167.669 99.0823 163.803 85.8869 169.214 80.1049C173.448 75.5801 178.034 76.4819 183 73.973C190.032 70.4205 199.704 60.0674 203 53C183.529 50.1352 164 42.9714 145 37.8488C138.721 36.156 127.38 30.809 121 32.6937C117.002 33.8745 113.835 38.1668 111 41L91 61L64 88C60.7229 91.2773 55.2669 95.1594 54.4082 100C53.284 106.337 57.5824 115.886 59.294 122C63.7627 137.962 67.8201 154.008 72.1512 170C73.6998 175.718 74.6762 187.239 79.4298 191.146C83.2291 194.268 90.3581 194.674 95 196C107.6 199.6 120.287 202.948 133 206.127C141.375 208.22 149.668 210.595 158 212.849C161.534 213.805 166.289 215.806 169.961 214.846C174.65 213.619 178.723 207.979 182.049 204.718C191.479 195.472 202.407 185.814 210 175C203.337 178.034 198.664 175.896 192 173.667C183.969 170.98 176.038 168.013 168 165.333C163.405 163.802 157.693 162.747 154.433 158.867C150.22 153.851 149.505 143.346 149 137C137.815 136.512 127.208 131.512 116 131C115.807 134.772 114.53 138.277 115 142C108.649 146.498 106.832 158.295 103 165C109.052 165.71 115.383 161.179 121 159L121 157C117.266 153.873 116.143 150.814 116 146C124.263 146.098 126.648 152.936 134 155C130.514 147.39 123.961 144.07 125 135C133.73 135.283 139.309 143.069 144.981 149C147.184 151.304 150.527 154.377 148.914 157.895C146.916 162.252 140.046 163.78 136 165.4C125.288 169.688 114.6 174.162 104 178.719C100.332 180.296 94.1274 184.198 90.0586 182.611C83.5654 180.079 87.43 172.309 89.2809 168C94.3995 156.083 99.3702 144.037 104.2 132C106.135 127.176 107.807 120.088 114.004 119.452C117.846 119.058 122.338 120.761 126.09 121.536C133.05 122.974 140.047 124.175 147 125.661C150.755 126.464 155.705 126.883 158.142 130.228C162.351 136.007 159.336 146.138 164.564 151.298C166.907 153.61 170.976 154.325 174 155.333C180.666 157.556 187.318 159.826 194 162C192.907 154.701 189.257 148.002 187.029 141C186.108 138.109 185.723 134.034 183.297 131.938C180.537 129.552 175.465 129.283 172 129C181.464 126.399 185.15 132.232 188.435 140C191.915 148.227 194.216 156.909 198 165C190.116 163.176 182.626 159.992 175 157.344C171.273 156.05 166.275 155.26 163.314 152.49C157.782 147.315 160.884 137.287 156.836 131.303C154.837 128.349 150.243 127.708 147 127.095C139.049 125.592 131.001 123.907 123 122.841C120.142 122.46 116.911 121.06 114.019 121.492C109.135 122.221 107.815 128.181 106.139 132C101.213 143.223 96.5543 154.615 92 166C90.6714 169.321 86.0034 177.038 89.6073 180.164C92.7147 182.86 98.9247 179.03 102 177.8C113.365 173.254 124.752 168.677 136 163.85C139.303 162.432 147.364 160.537 147.364 155.945C147.364 153.571 145.423 151.626 143.941 150C140.615 146.349 134.942 138.142 130.005 136.89C124.076 135.387 126.247 142.536 128.062 145C129.086 146.389 130.296 147.687 131.421 148.995C133.208 151.076 135.082 153.041 137 155C128.173 156.67 125.332 146.165 117 148C118.706 153.019 122.315 156.304 126 160C116.623 161.615 107.988 166.959 99 170L116 129C123.29 130.891 130.596 132.229 138 133.576C141.723 134.253 146.549 134.555 149.297 137.51C154.39 142.986 150.562 154.231 156.434 158.914C159.227 161.142 163.695 161.941 167 163.192C175.862 166.546 185.059 169.129 194 172.308C197.091 173.407 204.32 176.883 206.958 173.396C209.38 170.193 205.836 164.124 204.681 161C201.854 153.352 198.942 145.725 196.333 138C194.919 133.817 193.711 127.98 190.914 124.499C187.236 119.921 177.386 119.719 172 118.603C160.409 116.204 148.674 113.904 137 111.919C131.376 110.962 123.164 110.653 118.225 107.686C114.917 105.699 114.176 101.361 112.947 98C109.685 89.0825 106.938 80.0288 104 71C114.334 75.8329 128.576 77.2216 137.721 84.0748C143.987 88.7699 140.874 99.7135 144.988 105.721C147.882 109.947 159.526 112.151 164 109.968C167.794 108.117 169.985 103.933 174 102.452C178.667 100.732 183.413 102.914 187.671 99.3472C191.892 95.811 190.898 91.5575 192.603 87C193.807 83.7798 196.64 81.3772 199.001 79C205.643 72.3117 212.394 65.7282 218.995 59C221.648 56.297 225.137 53.2247 224.713 49.044C224.156 43.5492 217.203 42.9871 213 41.8488C200.028 38.3356 186.945 35.174 174 31.5756C161.026 27.9692 147.943 24.6986 135 21C129.85 19.5284 122.35 16.062 117 17.5285C110.313 19.3615 105.421 26.9398 100.715 31.5756C88.9223 43.1898 76.6414 54.574 65.5139 66.8156C59.4232 73.516 52.7357 79.9653 46.2801 86.3403C42.5908 89.9835 38.7204 93.3496 39.3187 99C40.2611 107.901 43.8292 117.333 46.1157 126C50.4247 142.333 54.6788 158.753 59.2901 175C60.8908 180.64 62.4431 186.315 63.8735 192C64.6728 195.177 65.1587 199.102 67.5131 201.57C70.6207 204.828 76.8104 205.565 81 206.626C91.3673 209.251 101.63 212.268 112 214.873C125.367 218.231 138.721 221.733 152 225.424C158.328 227.183 166.345 230.707 173 229.837C180.636 228.839 187.854 218.146 193 213L234 172C239.232 166.768 248.927 160.142 251.382 153C253.458 146.961 248.868 137.928 247.5 132C242.93 112.193 236.547 92.835 232 73z"/>
<path style="fill:#ff0000; stroke:none;" d="M178.019 83.8511C170.281 86.0381 173.433 97.722 180.985 96.1721C189.518 94.4207 185.957 81.6078 178.019 83.8511z"/>
<path style="fill:#b23617; stroke:none;" d="M38 105L39 106L38 105z"/>
<path style="fill:#ff0000; stroke:none;" d="M167 127C168.769 127.779 170.036 127.912 172 128C170.231 127.221 168.964 127.088 167 127z"/>
<path style="fill:#666633; stroke:none;" d="M254 152L255 153L254 152z"/>
<path style="fill:#993300; stroke:none;" d="M99 213L100 214L99 213z"/>
<path style="fill:#996633; stroke:none;" d="M136 223L137 224L136 223z"/>
</svg>
